<svg fill="#000000" xmlns="http://www.w3.org/2000/svg" viewBox="0 0 64 64" width="24px" height="24px"><path d="M48 42c-1.453 0-2.857.391-4.098 1.134L24 32.027c0-.009 0-.018 0-.027s0-.018 0-.027l19.902-11.107c.059.035.123.06.183.094.183.103.369.198.559.286.13.06.259.119.391.172.176.071.356.131.537.189.143.046.284.094.43.132.196.051.397.087.597.123.13.023.257.054.388.07C47.322 21.975 47.659 22 48 22c4.411 0 8-3.589 8-8s-3.589-8-8-8-8 3.589-8 8c0 .048 0 .095.001.143L20.195 25.195C18.932 24.412 17.494 24 16 24c-4.411 0-8 3.589-8 8s3.589 8 8 8c1.494 0 2.932-.412 4.195-1.195l19.806 11.053C40 49.905 40 49.952 40 50c0 .339.028.67.069.998.011.091.027.182.042.272.041.255.094.505.158.752.021.081.039.163.063.244.091.307.198.607.324.898.035.081.077.158.115.238.101.214.211.423.33.627.034.058.059.121.094.179.016.026.039.046.057.07C42.672 56.511 45.163 58 48 58c4.411 0 8-3.589 8-8S52.411 42 48 42zM48 56c-2.205 0-4.131-1.199-5.174-2.976-.09-.154-.173-.312-.249-.473-.028-.06-.06-.117-.086-.178-.094-.219-.175-.444-.242-.672-.018-.061-.032-.124-.048-.186-.048-.185-.088-.372-.118-.561-.011-.068-.023-.136-.031-.205C42.021 50.501 42 50.252 42 50c0-.206.011-.41.031-.611 0 0 0-.001 0-.002.06-.593.206-1.17.439-1.72.215-.509-.023-1.095-.532-1.311-.508-.214-1.095.023-1.31.532-.119.281-.217.569-.302.86l-19.693-10.99c-.152-.085-.32-.127-.487-.127-.209 0-.418.066-.594.195C18.511 37.594 17.283 38 16 38c-3.309 0-6-2.691-6-6s2.691-6 6-6c1.283 0 2.511.406 3.552 1.173.317.233.739.26 1.081.068l20.891-11.658c.348-.194.548-.576.508-.973C42.011 14.41 42 14.206 42 14c0-3.309 2.691-6 6-6s6 2.691 6 6-2.691 6-6 6c-.281 0-.558-.026-.833-.065-.09-.013-.179-.032-.269-.049-.189-.035-.376-.079-.56-.133-.091-.026-.181-.053-.271-.083-.228-.078-.452-.168-.67-.274-.029-.014-.059-.024-.088-.039-.261-.132-.514-.286-.757-.457-.541-.38-1.026-.846-1.422-1.394-.322-.447-.947-.549-1.396-.226-.448.323-.549.948-.226 1.396.216.3.456.576.708.84L22.482 30.529c-.343.191-.542.565-.509.957C21.987 31.656 22 31.827 22 32s-.013.344-.026.514c-.033.391.166.765.509.957l20.974 11.705c.338.188.752.166 1.068-.059C45.548 44.386 46.75 44 48 44c3.309 0 6 2.691 6 6S51.309 56 48 56zM16 21c.553 0 1-.448 1-1v-2c0-.552-.447-1-1-1s-1 .448-1 1v2C15 20.552 15.447 21 16 21zM9.134 22.108c.186.321.521.5.867.5.17 0 .342-.043.499-.134.479-.276.643-.888.366-1.366l-1-1.732c-.277-.479-.891-.643-1.366-.366-.479.276-.643.888-.366 1.366L9.134 22.108zM6.107 25.134l-1.731-1c-.478-.277-1.09-.113-1.366.366-.276.478-.112 1.09.366 1.366l1.731 1C5.265 26.957 5.437 27 5.606 27c.346 0 .682-.179.867-.5C6.75 26.022 6.586 25.41 6.107 25.134zM5 32c0-.552-.447-1-1-1H2c-.553 0-1 .448-1 1s.447 1 1 1h2C4.553 33 5 32.552 5 32zM16 43c-.553 0-1 .448-1 1v2c0 .552.447 1 1 1s1-.448 1-1v-2C17 43.448 16.553 43 16 43zM10.5 41.526c-.478-.276-1.09-.112-1.366.366l-1 1.732c-.276.479-.112 1.09.366 1.366.157.091.329.134.499.134.346 0 .682-.179.867-.5l1-1.732C11.143 42.414 10.979 41.802 10.5 41.526zM5.107 37.134l-1.731 1C2.897 38.41 2.733 39.022 3.01 39.5 3.195 39.821 3.531 40 3.877 40c.17 0 .342-.043.499-.134l1.731-1C6.586 38.59 6.75 37.978 6.474 37.5 6.196 37.021 5.584 36.857 5.107 37.134z"/></svg>